<svg xmlns="http://www.w3.org/2000/svg" height="40" viewBox="0 96 960 960" width="40"><path d="M20.002 807.538v-43.897q0-38.283 40.546-62.321 40.547-24.037 105.242-24.037 11.658 0 22.627.692 10.968.693 20.942 2.511-8.333 16.13-12.692 33.629-4.358 17.498-4.358 37v56.423H20.001Zm239.999 0v-54.999q0-57.308 60.988-91.923 60.987-34.615 159.117-34.615 99.047 0 159.47 34.615t60.423 91.923v54.999H260.001Zm507.69 0v-56.423q0-19.502-3.858-37-3.859-17.499-12.244-33.629 10.231-1.818 21.135-2.511 10.903-.692 22.147-.692 65.525 0 105.327 24.037 39.801 24.038 39.801 62.321v43.897H767.691ZM479.82 676.256q-73.436 0-120.679 20.872-47.244 20.872-48.116 53.36v6.795H649.18v-7.205q-1.077-32.078-47.821-52.95-46.743-20.872-121.539-20.872Zm-314.595-32.947q-26.054 0-44.677-18.665t-18.623-44.924q0-26.308 18.664-44.756 18.665-18.448 44.925-18.448 26.307 0 44.948 18.448 18.64 18.448 18.64 45.044 0 26.054-18.64 44.678-18.641 18.623-45.237 18.623Zm629.358 0q-25.814 0-44.557-18.665-18.744-18.665-18.744-44.924 0-26.308 18.785-44.756t44.879-18.448q26.617 0 45.065 18.448 18.449 18.448 18.449 45.044 0 26.054-18.4 44.678-18.401 18.623-45.477 18.623Zm-314.447-47.308q-43.212 0-73.597-30.288-30.384-30.288-30.384-73.557 0-44.134 30.288-73.989 30.288-29.855 73.557-29.855 44.134 0 73.99 29.816 29.855 29.816 29.855 73.893 0 43.212-29.816 73.596-29.817 30.384-73.893 30.384Zm.098-157.435q-22.439 0-38.132 15.347-15.692 15.346-15.692 38.01 0 22.439 15.593 38.131 15.593 15.693 38.423 15.693 22.574 0 37.869-15.593 15.295-15.593 15.295-38.424 0-22.574-15.346-37.869-15.347-15.295-38.01-15.295ZM480 757.283Zm0-265.127Z"/></svg>