<svg xmlns="http://www.w3.org/2000/svg" height="40" viewBox="0 96 960 960" width="40"><path d="M479.301 795.717q14.571 0 24.814-10.088t10.243-24.751q0-14.571-10.262-24.814t-24.833-10.243q-14.57 0-24.686 10.262-10.115 10.262-10.115 24.833 0 14.57 10.088 24.686 10.088 10.115 24.751 10.115Zm-26.839-140.256h48.05q.513-29.077 9.782-46.653 9.269-17.577 33.591-41.789 31.217-31.07 44.076-54.493 12.858-23.423 12.858-50.807 0-49.923-32.999-79.757-33-29.833-85.104-29.833-47.413 0-81.064 23.603-33.651 23.602-49.087 61.217l45.024 18.717q11.924-25.871 32.416-41.038 20.492-15.167 51.277-15.167 34.693 0 53.09 18.321 18.397 18.321 18.397 45.456 0 19.942-10.871 37.583-10.872 17.641-34.051 39.154-34.257 32.359-44.821 56.769-10.564 24.41-10.564 58.717ZM202.565 915.999q-25.788 0-44.176-18.388t-18.388-44.176v-554.87q0-25.788 18.388-44.176t44.176-18.388h554.87q25.788 0 44.176 18.388t18.388 44.176v554.87q0 25.788-18.388 44.176t-44.176 18.388h-554.87Zm0-50.255h554.87q4.616 0 8.462-3.847 3.847-3.846 3.847-8.462v-554.87q0-4.616-3.847-8.462-3.846-3.847-8.462-3.847h-554.87q-4.616 0-8.462 3.847-3.847 3.846-3.847 8.462v554.87q0 4.616 3.847 8.462 3.846 3.847 8.462 3.847Zm-12.309-579.488V865.744 286.256Z"/></svg>